<svg xmlns="http://www.w3.org/2000/svg" width="19.532" height="19.532" viewBox="0 0 19.532 19.532">
  <g id="Frame_833" data-name="Frame 833" transform="translate(-6 -6.279)">
    <g id="icons_Location_Arrow_Line" data-name="icons/Location Arrow/Line" transform="translate(4 4)">
      <path id="Shape" d="M16.064.2a2.5,2.5,0,0,1,3.269,3.269L13.409,17.685a3,3,0,0,1-5.728-.661L6.942,12.59l-4.434-.739a3,3,0,0,1-.661-5.728Zm1.423,2.5a.5.5,0,0,0-.654-.654L2.616,7.969a1,1,0,0,0,.22,1.909l4.434.739a2,2,0,0,1,1.644,1.644L9.654,16.7a1,1,0,0,0,1.909.22Z" transform="translate(2 2.279)" fill="#b1b5c3" fill-rule="evenodd"/>
    </g>
  </g>
</svg>
